#!OML:ASF H:\Terrain\Walking\May29\JustinRory\Justin.ASF
:FULLY-SPECIFIED
:DEGREES
1181
root 11.5606 18.0692 8.45121 -174.236 -51.705 -177.586 
lowerback 3.11221 -2.88266 1.34869 
upperback 1.09132 -3.86206 3.17252 
thorax -0.490472 -1.97035 2.63269 
lowerneck -4.60262 -14.1998 -16.8214 
upperneck 7.14946 -19.1521 13.001 
head 5.77462 -9.36088 5.01841 
rclavicle -7.49418e-14 1.82882e-14 
rhumerus -6.23695 -9.32255 -72.3453 
rradius 45.0556 
rwrist -20.3825 
rhand -31.5532 31.7663 
rfingers 7.12502 
rthumb -4.81732 1.84102 
lclavicle -7.49418e-14 1.82882e-14 
lhumerus -35.2389 7.03806 79.1622 
lradius 34.3266 
lwrist -7.57062 
lhand 2.24907 38.4342 
lfingers 7.12502 
lthumb 27.7428 66.4073 
rfemur -24.6396 -16.9382 24.8635 
rtibia 20.0686 
rfoot -6.41993 -24.4919 
rtoes 30.2033 
lfemur -8.91902 11.3508 -13.8478 
ltibia 39.5255 
lfoot -15.7474 16.7504 
ltoes 10.3953 
1182
root 11.5659 18.0763 8.50808 -174.06 -52.6032 -177.791 
lowerback 3.0279 -2.98776 1.16543 
upperback 0.853213 -3.99588 3.19184 
thorax -0.66932 -2.03367 2.76258 
lowerneck -4.55897 -14.2659 -16.801 
upperneck 7.26049 -19.2522 12.8864 
head 5.80221 -9.41526 4.96649 
rclavicle 6.64935e-14 -3.97569e-15 
rhumerus -7.25386 -9.69985 -71.9703 
rradius 45.2153 
rwrist -19.5798 
rhand -31.5172 31.6081 
rfingers 7.12502 
rthumb -4.78258 1.68208 
lclavicle 6.64935e-14 -3.97569e-15 
lhumerus -35.2391 6.72249 79.5935 
lradius 34.521 
lwrist -7.51407 
lhand 1.99663 38.5783 
lfingers 7.12502 
lthumb 27.5014 66.5899 
rfemur -24.7834 -17.7764 24.6317 
rtibia 20.0763 
rfoot -6.23824 -24.5333 
rtoes 29.5685 
lfemur -8.60433 11.7808 -14.1069 
ltibia 38.9777 
lfoot -15.5743 17.2943 
ltoes 11.4474 
1183
root 11.5775 18.079 8.56191 -173.798 -53.3125 -177.949 
lowerback 2.81169 -3.03517 0.82222 
upperback 0.606495 -4.06256 3.27156 
thorax -0.7697 -2.06372 3.03365 
lowerneck -4.51305 -14.3503 -16.8236 
upperneck 7.31493 -19.3595 12.7278 
head 5.81213 -9.47558 4.90722 
rclavicle -1.2921e-15 2.8625e-14 
rhumerus -7.86919 -10.2227 -71.5766 
rradius 44.8031 
rwrist -18.7525 
rhand -32.513 32.5838 
rfingers 7.12502 
rthumb -5.74402 2.68165 
lclavicle -1.2921e-15 2.8625e-14 
lhumerus -35.3524 6.32692 80.112 
lradius 35.1848 
lwrist -7.24306 
lhand 1.98031 38.9962 
lfingers 7.12502 
lthumb 27.4858 67.0104 
rfemur -24.8932 -17.8414 24.3287 
rtibia 19.9146 
rfoot -6.52386 -25.0871 
rtoes 30.2802 
lfemur -8.55345 12.4623 -14.3463 
ltibia 38.5599 
lfoot -15.2575 17.5911 
ltoes 13.2523 
1184
root 11.5958 18.0613 8.62351 -173.982 -53.9867 -177.589 
lowerback 2.65244 -3.06456 0.854653 
upperback 0.428724 -4.09861 3.34462 
thorax -0.858401 -2.08042 3.08878 
lowerneck -4.51289 -14.3666 -16.7242 
upperneck 7.30849 -19.3807 12.6597 
head 5.79608 -9.4867 4.87075 
rclavicle 8.34896e-14 2.54444e-14 
rhumerus -8.41743 -11.0108 -71.3328 
rradius 44.4206 
rwrist -17.9794 
rhand -32.962 32.5186 
rfingers 7.12502 
rthumb -6.17751 2.6287 
lclavicle 8.34896e-14 2.54444e-14 
lhumerus -35.3957 5.65787 80.5472 
lradius 36.1044 
lwrist -6.80048 
lhand 2.28222 39.8262 
lfingers 7.12502 
lthumb 27.7745 67.7942 
rfemur -24.8781 -17.2815 24.1723 
rtibia 19.5603 
rfoot -7.04823 -26.1752 
rtoes 32.2213 
lfemur -8.58163 13.1859 -14.2466 
ltibia 38.1914 
lfoot -14.8094 17.6938 
ltoes 14.1862 
1185
root 11.6118 18.0333 8.69011 -174.736 -54.8345 -176.586 
lowerback 2.44199 -3.12974 1.41636 
upperback 0.335401 -4.17851 3.44806 
thorax -0.864856 -2.12371 2.87542 
lowerneck -4.62948 -14.3458 -16.8574 
upperneck 7.52312 -19.386 12.9135 
head 5.92373 -9.47805 4.95041 
rclavicle 1.09332e-15 2.38542e-14 
rhumerus -8.90443 -11.7338 -71.1858 
rradius 44.0326 
rwrist -17.5462 
rhand -33.7189 31.7682 
rfingers 7.12502 
rthumb -6.90819 1.90092 
lclavicle 1.09332e-15 2.38542e-14 
lhumerus -35.2426 4.87431 80.8931 
lradius 36.8194 
lwrist -6.3937 
lhand 2.59372 40.3708 
lfingers 7.12502 
lthumb 28.0723 68.2903 
rfemur -24.9304 -16.9906 24.4176 
rtibia 19.3774 
rfoot -7.61472 -27.1522 
rtoes 33.7543 
lfemur -8.62158 13.7475 -13.7905 
ltibia 37.7563 
lfoot -14.3089 18.1692 
ltoes 9.84454 
1186
root 11.6242 18.0216 8.75091 -174.887 -55.6703 -176.394 
lowerback 2.1974 -3.2473 1.32325 
upperback 0.271039 -4.34538 3.55668 
thorax -0.772258 -2.20805 3.02986 
lowerneck -4.75531 -14.3182 -17.2543 
upperneck 7.67493 -19.3521 13.2002 
head 6.05711 -9.45395 5.08189 
rclavicle 6.14245e-14 -1.35174e-14 
rhumerus -9.13786 -12.029 -70.9124 
rradius 43.3449 
rwrist -17.457 
rhand -34.5962 31.1131 
rfingers 7.12502 
rthumb -7.75502 1.27534 
lclavicle 6.14245e-14 -1.35174e-14 
lhumerus -35.0789 4.62487 81.2432 
lradius 37.2583 
lwrist -6.22625 
lhand 2.63323 39.487 
lfingers 7.12502 
lthumb 28.11 67.4003 
rfemur -25.014 -17.0777 24.2391 
rtibia 19.3847 
rfoot -7.94302 -27.8378 
rtoes 34.1989 
lfemur -8.50089 14.2055 -13.8864 
ltibia 37.0839 
lfoot -14.2911 19.031 
ltoes 0.448938 
1187
root 11.6424 18.007 8.81287 -174.618 -56.369 -176.699 
lowerback 2.03018 -3.30193 0.900266 
upperback 0.153802 -4.424 3.53385 
thorax -0.765813 -2.24356 3.23683 
lowerneck -4.54439 -14.2606 -17.249 
upperneck 7.47486 -19.295 13.2694 
head 5.95804 -9.43384 5.13093 
rclavicle 8.12035e-14 -2.78299e-14 
rhumerus -9.3471 -12.9295 -70.7596 
rradius 42.4804 
rwrist -17.2422 
rhand -34.8174 30.7488 
rfingers 7.12502 
rthumb -7.96854 0.918993 
lclavicle 8.12035e-14 -2.78299e-14 
lhumerus -35.0606 4.35132 81.4434 
lradius 37.7002 
lwrist -6.17158 
lhand 2.63379 38.2197 
lfingers 7.12502 
lthumb 28.1106 66.1329 
rfemur -25.284 -17.1725 23.8069 
rtibia 19.6182 
rfoot -7.88502 -28.4184 
rtoes 34.0908 
lfemur -8.26599 14.6838 -14.2852 
ltibia 36.2115 
lfoot -14.8233 19.4509 
ltoes -7.08674 
1188
root 11.66 18.0009 8.88117 -174.477 -57.132 -176.871 
lowerback 1.88606 -3.28044 0.7609 
upperback 0.0560715 -4.39179 3.37352 
thorax -0.789362 -2.22268 3.143 
lowerneck -4.19214 -14.2305 -17.1192 
upperneck 7.19963 -19.3208 13.4645 
head 5.82644 -9.45362 5.20139 
rclavicle 3.69739e-14 -2.22639e-14 
rhumerus -10.7056 -13.4791 -70.533 
rradius 42.7426 
rwrist -17.8534 
rhand -34.98 30.4008 
rfingers 7.12502 
rthumb -8.12545 0.576974 
lclavicle 3.69739e-14 -2.22639e-14 
lhumerus -34.9571 3.69261 81.5746 
lradius 38.3121 
lwrist -6.08129 
lhand 2.96457 39.0821 
lfingers 7.12502 
lthumb 28.4267 66.943 
rfemur -25.6059 -17.5 23.4749 
rtibia 19.9471 
rfoot -7.52985 -28.8735 
rtoes 33.5801 
lfemur -8.0112 14.963 -14.6546 
ltibia 35.1895 
lfoot -15.3032 19.5498 
ltoes -9.25002 
